<?xml version="1.0" encoding="utf-8" standalone="no"?><!DOCTYPE svg PUBLIC "-//W3C//DTD SVG 1.1//EN" "http://www.w3.org/Graphics/SVG/1.1/DTD/svg11.dtd"[]><svg width="100%" height="100%" viewBox="0 0 7217 6900" version="1.1" xmlns="http://www.w3.org/2000/svg" xmlns:xlink="http://www.w3.org/1999/xlink" xml:space="preserve" xmlns:serif="http://www.serif.com/" style="fill-rule:evenodd;clip-rule:evenodd;stroke-linecap:round;stroke-linejoin:round;stroke-miterlimit:1.5;"><rect x="4327.12" y="3658.33" width="1082.68" height="659.675" style="fill:#299a32;stroke:#fff;stroke-width:10.42px;" /><rect x="5065.29" y="3752.07" width="221.458" height="400.6" style="fill-opacity:0.26;stroke:#fff5f5;stroke-width:10.42px;" /><path d="M4277.92,3629.04l-0,-196.85c128.983,-16.913 197.046,-95.092 196.862,-246.067l0,-147.633l196.85,-147.642l0,-246.067l195.663,-295.275l198.033,295.275l-0,246.067l196.85,147.641l-0,147.634c0.833,175.675 77.121,242.266 196.85,246.066l-0,196.851l-1181.11,-0.001Z" style="fill:#299a32;stroke:#fff5f5;stroke-width:10.42px;" /><rect x="4327.12" y="4347.29" width="1082.68" height="773.946" style="fill:#299a32;stroke:#fff;stroke-width:10.42px;" /><rect x="4757.75" y="3752.07" width="221.458" height="400.6" style="fill-opacity:0.26;stroke:#fff5f5;stroke-width:10.42px;" /><rect x="4450.17" y="3752.07" width="221.458" height="400.6" style="fill-opacity:0.26;stroke:#fff5f5;stroke-width:10.42px;" /><rect x="3279.41" y="1454.04" width="733.488" height="1030.21" style="fill:#fec309;stroke:#fff;stroke-width:10.42px;" /><rect x="2027.05" y="3039.45" width="954.154" height="442.188" style="fill:#636e77;stroke:#fff;stroke-width:10.42px;" /><rect x="3073.33" y="2637.25" width="1169.25" height="2485.62" style="fill:#d64b00;stroke:#fff;stroke-width:10.42px;" /><path d="M4560.88,3752.07l0,400.6" style="fill:none;stroke:#fff;stroke-width:10.42px;" /><rect x="2027.05" y="3485.09" width="962.775" height="1637.76" style="fill:#ff6836;stroke:#fff;stroke-width:10.42px;" /><path d="M241.954,2764.18l0,-168.087l191.563,-0l-0,-168.45l188.137,-0l0,-168.45l190.913,-0l-0,-168.45l313.825,-0l-0,168.45l191.562,-0l0,168.45l191.563,-0l-0,168.45l191.562,-0l0,168.087l-1459.12,0Z" style="fill:#226fa7;stroke:#fff;stroke-width:10.42px;" /><rect x="13.308" y="4179.92" width="1922.27" height="942.954" style="fill:#226fa7;stroke:#fff;stroke-width:10.42px;" /><rect x="13.308" y="3438.35" width="1922.27" height="715.912" style="fill:#226fa7;stroke:#fff;stroke-width:10.42px;" /><rect x="215.754" y="4422.79" width="275.663" height="561.067" style="fill-opacity:0.26;stroke:#fffefe;stroke-width:11.33px;" /><path d="M4450.17,3952.37l221.458,-0" style="fill:none;stroke:#fff;stroke-width:10.42px;" /><path d="M4868.46,3752.07l0,400.6" style="fill:none;stroke:#fff;stroke-width:10.42px;" /><path d="M4757.75,3952.37l221.458,-0" style="fill:none;stroke:#fff;stroke-width:10.42px;" /><path d="M5176.04,3752.07l-0,400.6" style="fill:none;stroke:#fff;stroke-width:10.42px;" /><path d="M5065.29,3952.37l221.458,-0" style="fill:none;stroke:#fff;stroke-width:10.42px;" /><path d="M215.754,4785.96l275.667,0" style="fill:none;stroke:#fff;stroke-width:11.33px;" /><path d="M353.579,4424.33l0,554.75" style="fill:none;stroke:#fff;stroke-width:11.33px;" /><path d="M215.754,4596.12l275.667,0" style="fill:none;stroke:#fff;stroke-width:11.33px;" /><rect x="4474.75" y="4469.46" width="147.642" height="537.512" style="fill-opacity:0.26;stroke:#fff;stroke-width:10.42px;" /><rect x="4718.46" y="4469.5" width="297.642" height="651.783" style="fill-opacity:0.26;stroke:#fff;stroke-width:10.42px;" /><rect x="5139.12" y="4469.46" width="147.642" height="537.512" style="fill-opacity:0.1;stroke:#fff;stroke-width:10.42px;" /><rect x="1454.19" y="4424.33" width="275.663" height="561.067" style="fill-opacity:0.26;stroke:#fffefe;stroke-width:11.33px;" /><path d="M1454.19,4787.5l275.654,0" style="fill:none;stroke:#fff;stroke-width:11.33px;" /><path d="M1592.02,4425.88l-0,554.75" style="fill:none;stroke:#fff;stroke-width:11.33px;" /><path d="M1454.19,4597.62l275.654,0" style="fill:none;stroke:#fff;stroke-width:11.33px;" /><path d="M1199.9,4491.17c-155.417,-124.35 -305.742,-124.829 -450.913,-0l0,631.691l450.913,0l-0,-631.691Z" style="fill-opacity:0.26;stroke:#fffcfc;stroke-width:11.33px;" /><path d="M974.442,4397.75l-0,135.521l225.454,-0l-450.913,-0" style="fill:none;stroke:#fffcfc;stroke-width:11.33px;" /><path d="M2733.88,4491.21c-155.404,-124.35 -305.729,-124.845 -450.908,0l-0,631.68l450.908,-0.001l0,-631.679Z" style="fill-opacity:0.26;stroke:#fffcfc;stroke-width:11.33px;" /><path d="M2508.43,4397.79l0,135.533l225.454,0l-450.908,0" style="fill:none;stroke:#fffcfc;stroke-width:11.33px;" /><rect x="217.267" y="3569.03" width="275.663" height="457.671" style="fill-opacity:0.26;stroke:#fffefe;stroke-width:11.33px;" /><path d="M217.267,3872.11l275.65,0" style="fill:none;stroke:#fff;stroke-width:11.33px;" /><path d="M355.092,3569.03l-0,452.888" style="fill:none;stroke:#fff;stroke-width:11.33px;" /><path d="M217.267,3717.92l275.65,-0" style="fill:none;stroke:#fff;stroke-width:11.33px;" /><rect x="624.933" y="3570.26" width="275.663" height="457.671" style="fill-opacity:0.26;stroke:#fffefe;stroke-width:11.33px;" /><path d="M624.933,3873.35l275.667,-0" style="fill:none;stroke:#fff;stroke-width:11.33px;" /><path d="M762.763,3570.26l-0,452.88" style="fill:none;stroke:#fff;stroke-width:11.33px;" /><path d="M624.933,3719.15l275.667,0" style="fill:none;stroke:#fff;stroke-width:11.33px;" /><rect x="2166.76" y="3687.9" width="275.662" height="457.671" style="fill-opacity:0.26;stroke:#fffefe;stroke-width:11.33px;" /><path d="M2166.76,3990.99l275.663,-0" style="fill:none;stroke:#fff;stroke-width:11.33px;" /><path d="M2304.6,3687.9l-0,452.892" style="fill:none;stroke:#fff;stroke-width:11.33px;" /><path d="M2166.76,3836.81l275.663,0" style="fill:none;stroke:#fff;stroke-width:11.33px;" /><rect x="2574.43" y="3689.14" width="275.662" height="457.671" style="fill-opacity:0.26;stroke:#fffefe;stroke-width:11.33px;" /><path d="M2574.43,3992.22l275.663,0" style="fill:none;stroke:#fff;stroke-width:11.33px;" /><path d="M2712.27,3689.14l-0,452.891" style="fill:none;stroke:#fff;stroke-width:11.33px;" /><path d="M2574.43,3838.05l275.663,-0" style="fill:none;stroke:#fff;stroke-width:11.33px;" /><path d="M2574.43,3992.22l275.663,0" style="fill:none;stroke:#fff;stroke-width:11.33px;" /><path d="M2712.27,3689.14l-0,452.891" style="fill:none;stroke:#fff;stroke-width:11.33px;" /><path d="M2574.43,3838.05l275.663,-0" style="fill:none;stroke:#fff;stroke-width:11.33px;" /><rect x="1051.59" y="3567.87" width="275.663" height="457.671" style="fill-opacity:0.26;stroke:#fffefe;stroke-width:11.33px;" /><path d="M1051.59,3870.95l275.666,0" style="fill:none;stroke:#fff;stroke-width:11.33px;" /><path d="M1189.43,3567.87l0,452.887" style="fill:none;stroke:#fff;stroke-width:11.33px;" /><path d="M1051.59,3716.76l275.666,0" style="fill:none;stroke:#fff;stroke-width:11.33px;" /><rect x="1452.68" y="3570.26" width="275.663" height="457.671" style="fill-opacity:0.26;stroke:#fffefe;stroke-width:11.33px;" /><path d="M1452.68,3873.35l275.663,-0" style="fill:none;stroke:#fff;stroke-width:11.33px;" /><path d="M1590.51,3570.26l0,452.88" style="fill:none;stroke:#fff;stroke-width:11.33px;" /><path d="M1452.68,3719.15l275.663,0" style="fill:none;stroke:#fff;stroke-width:11.33px;" /><rect x="10.025" y="2848.78" width="1922.27" height="568.517" style="fill:#226fa7;stroke:#fffcfc;stroke-width:10.42px;" /><path d="M971.158,3227.79l0,-319.296" style="fill:none;stroke:#fff;stroke-width:10.42px;" /><path d="M1109,2975.1c-86.859,-89.179 -178.788,-88.475 -275.663,0l0,252.684l275.663,-0.001l-0,-252.683Z" style="fill-opacity:0.26;stroke:#fffefe;stroke-width:11.33px;" /><path d="M483.817,3227.79l-0,-319.296" style="fill:none;stroke:#fff;stroke-width:10.42px;" /><path d="M621.654,2975.1c-86.85,-89.179 -178.775,-88.475 -275.662,0l-0,252.684l275.662,-0.001l0,-252.683Z" style="fill-opacity:0.26;stroke:#fffefe;stroke-width:11.33px;" /><path d="M952.525,2662.72l0,-319.296" style="fill:none;stroke:#fff;stroke-width:10.42px;" /><path d="M1090.37,2410.04c-86.85,-89.18 -178.779,-88.476 -275.667,-0l0,252.683l275.667,-0l-0,-252.683Z" style="fill-opacity:0.26;stroke:#fffefe;stroke-width:11.33px;" /><path d="M4868.46,3333.76l0,-319.295" style="fill:none;stroke:#fff;stroke-width:10.42px;" /><path d="M5006.29,3081.08c-86.846,-89.179 -178.775,-88.475 -275.663,0l0,252.683l275.663,0l-0,-252.683Z" style="fill-opacity:0.26;stroke:#fffefe;stroke-width:11.33px;" /><path d="M1447.6,3227.79l0,-319.296" style="fill:none;stroke:#fff;stroke-width:10.42px;" /><path d="M1585.43,2975.1c-86.85,-89.179 -178.775,-88.475 -275.662,0l-0,252.684l275.662,-0.001l0,-252.683Z" style="fill-opacity:0.26;stroke:#fffefe;stroke-width:11.33px;" /><path d="M1932.29,2800.42c-0,-5.846 -4.755,-10.6 -10.6,-10.6l-1905.87,-0c-5.859,-0 -10.613,4.754 -10.613,10.6l0,21.212c0,5.859 4.754,10.613 10.613,10.613l1905.87,-0c5.846,-0 10.6,-4.754 10.6,-10.613l-0,-21.212Z" style="fill:#226fa7;stroke:#fff;stroke-width:10.42px;" /><path d="M2667.16,2913.43l-175.042,-278.112l-176.25,278.112l-0,571.667l351.292,-0l-0,-571.667Z" style="fill:#ff6836;stroke:#fff;stroke-width:10.42px;" /><path d="M3841.33,480.404l-350.417,0l-229.662,992.5l814.283,0l-234.204,-992.5Z" style="fill:#636e77;stroke:#fff;stroke-width:10.42px;" /><path d="M3177.73,867.383l-41.771,0l-125.27,463.738l292.316,-0l-125.275,-463.738Z" style="fill:#636e77;stroke:#fff;stroke-width:10.42px;" /><path d="M3692.25,5.208l-47.721,0l-143.179,463.725l334.075,0l-143.175,-463.725Z" style="fill:#636e77;stroke:#fff;stroke-width:10.42px;" /><path d="M4179.92,867.383l-41.755,0l-125.274,463.738l292.304,-0l-125.275,-463.738Z" style="fill:#636e77;stroke:#fff;stroke-width:10.42px;" /><rect x="2989.82" y="1331.12" width="334.063" height="1276.05" style="fill:#d64b00;stroke:#fff;stroke-width:10.42px;" /><rect x="3992.02" y="1331.12" width="334.063" height="1276.05" style="fill:#d64b00;stroke:#fff;stroke-width:10.42px;" /><rect x="2989.82" y="2340.03" width="1336.28" height="267.15" style="fill:#d64b00;stroke:#fff;stroke-width:10.42px;" /><path d="M3520.39,2870.91c-64.584,-187.059 -130.209,-182.971 -196.513,-0l0,445.179l196.513,-0l-0,-445.179Z" style="fill:#808080;stroke:#fff;stroke-width:13.04px;" /><path d="M2597.62,3139.53c-60.95,-134.896 -122.892,-131.95 -185.467,0l0,321.059l185.467,-0.001l-0,-321.058Z" style="fill:#808080;stroke:#fff;stroke-width:13.04px;" /><path d="M6255.67,3033.37l-491.342,-0l-227.229,442.187l954.166,0l-235.6,-442.187l0.005,-0Z" style="fill:#636e77;stroke:#fff;stroke-width:10.42px;" /><rect x="5537.12" y="3479.01" width="962.775" height="1637.76" style="fill:#b81a52;stroke:#fff;stroke-width:10.42px;" /><path d="M6243.96,4485.12c-155.416,-124.35 -305.741,-124.842 -450.912,0l-0,631.679l450.912,0l0,-631.679Z" style="fill-opacity:0.26;stroke:#fffcfc;stroke-width:11.33px;" /><path d="M6018.5,4391.71l0,135.534l225.454,-0l-450.912,-0" style="fill:none;stroke:#fffcfc;stroke-width:11.33px;" /><rect x="5676.83" y="3681.83" width="275.663" height="457.671" style="fill-opacity:0.26;stroke:#fffefe;stroke-width:11.33px;" /><path d="M5676.83,3984.91l275.663,0" style="fill:none;stroke:#fff;stroke-width:11.33px;" /><path d="M5814.67,3681.83l-0,452.888" style="fill:none;stroke:#fff;stroke-width:11.33px;" /><path d="M5676.83,3830.73l275.663,0" style="fill:none;stroke:#fff;stroke-width:11.33px;" /><rect x="6084.5" y="3683.06" width="275.663" height="457.671" style="fill-opacity:0.26;stroke:#fffefe;stroke-width:11.33px;" /><path d="M6084.5,3986.15l275.667,-0" style="fill:none;stroke:#fff;stroke-width:11.33px;" /><path d="M6222.33,3683.06l0,452.892" style="fill:none;stroke:#fff;stroke-width:11.33px;" /><path d="M6084.5,3831.97l275.667,-0" style="fill:none;stroke:#fff;stroke-width:11.33px;" /><path d="M6084.5,3986.15l275.667,-0" style="fill:none;stroke:#fff;stroke-width:11.33px;" /><path d="M6222.33,3683.06l0,452.892" style="fill:none;stroke:#fff;stroke-width:11.33px;" /><path d="M6084.5,3831.97l275.667,-0" style="fill:none;stroke:#fff;stroke-width:11.33px;" /><path d="M4006.76,2870.91c-64.583,-187.059 -130.208,-182.971 -196.512,-0l-0,445.179l196.512,-0l0,-445.179Z" style="fill:#808080;stroke:#fff;stroke-width:13.04px;" /><path d="M3520.39,3645.96c-64.584,-187.042 -130.209,-182.955 -196.513,-0.001l0,445.196l196.513,0l-0,-445.195Z" style="fill:#808080;stroke:#fff;stroke-width:13.04px;" /><path d="M4006.76,3645.96c-64.583,-187.042 -130.208,-182.955 -196.512,-0.001l-0,445.196l196.512,0l0,-445.195Z" style="fill:#808080;stroke:#fff;stroke-width:13.04px;" /><path d="M3520.39,4421.04c-64.584,-187.046 -130.209,-182.954 -196.513,-0l0,445.195l196.513,0.001l-0,-445.196Z" style="fill:#808080;stroke:#fff;stroke-width:13.04px;" /><path d="M4006.76,4421.04c-64.583,-187.046 -130.208,-182.954 -196.512,-0l-0,445.195l196.512,0.001l0,-445.196Z" style="fill:#808080;stroke:#fff;stroke-width:13.04px;" /><ellipse cx="3657" cy="1906.47" rx="256.146" ry="248.125" style="fill:#d64b00;stroke:#fff;stroke-width:10.42px;" /><path d="M4917.67,4588.67l-0,-119.18l-98.425,1.067l-0,118.113" style="fill:none;stroke:#fff5f5;stroke-width:10.42px;" /><path d="M5016.08,4588.67l-297.633,-0" style="fill:none;stroke:#fff5f5;stroke-width:10.42px;" /><path d="M846.642,5862.04l5663.08,-668.163l-1181.1,364.454c-0,-262.358 -787.408,-87.187 -787.408,242.967l-196.85,60.742c-0,-341.692 -984.246,-303.709 -984.246,303.712l-286.796,88.492c-59.338,-701.892 -1484.86,-290.979 -1484.86,458.175l-442.917,136.679l-0,-740.558l-298.917,-246.5l0.013,-0Z" style="fill:#7b7b81;" /><path d="M23.517,5175.88l6476.38,0l-5678.25,657.004l-798.125,-657.004Z" style="fill:#fec309;" /><path d="M353.254,5447.29l6156.5,-271.434l-6078.79,352.034l-77.695,-80.6l-0.013,-0Z" style="fill:#fff;" /><path d="M1784.78,6254.25c513.438,-190.729 897.879,-302.75 1288.55,0c-21.654,-202.867 -70.037,-331.446 -415.337,-359.908c-393.792,-32.463 -756.171,208.487 -873.217,359.908Z" style="fill:#125e82;" /><path d="M3510.42,5817.17c231.837,-110.05 587.696,-162.8 833.958,44.841c0,-85.375 -29.933,-127.421 -139.442,-190.141c-190.075,-108.855 -645.845,3.191 -694.516,145.3Z" style="fill:#28859d;" /><path d="M5328.62,5558.33c-151.758,-126.812 -445.754,-54.962 -635.65,7.513c77.225,-114.638 365.65,-161.054 488.683,-130.717c97.071,13.125 146.967,57.004 146.967,123.204Z" style="fill:#69abd9;" /><g><path d="M5686.25,5830.38l-85,-70c34.167,-78.333 92.5,-118.333 173.333,-118.333c35.834,-0 69.167,10 100,30c31.667,20 46.667,50 46.667,91.666c0,47.5 -24.167,95.834 -72.5,145.834l-146.667,151.666l115.834,0c42.5,0 67.5,-25.833 75.833,-77.5l37.5,0l-20.833,169.167l-313.334,0l0,-18.333c102.5,-126.667 165,-212.5 187.5,-257.5c22.5,-45 33.334,-83.334 33.334,-116.667c-0,-24.167 -5.834,-43.333 -17.5,-56.667c-11.667,-13.333 -26.667,-20 -45,-20c-22.5,0 -40.834,9.167 -54.167,27.5c-13.333,18.334 -20,43.334 -20,73.334c0,15 1.667,30.833 5,45.833Z" style="fill:#b81a52;fill-rule:nonzero;" /></g><g><path d="M6375.12,5907.04c0,81.666 -16.667,145 -49.167,189.166c-33.333,43.334 -74.166,65.834 -123.333,65.834c-48.333,-0 -89.167,-23.334 -122.5,-68.334c-33.333,-45.833 -50,-108.333 -50,-190c0,-84.166 16.667,-148.333 50.833,-192.5c33.334,-44.166 74.167,-66.666 121.667,-66.666c47.5,-0 88.333,21.666 121.667,65.833c34.166,43.333 50.833,109.167 50.833,196.667Zm-101.667,61.666l0,-115.833c0,-61.667 -5.833,-105.833 -17.5,-131.667c-11.666,-25.833 -29.166,-38.333 -53.333,-38.333c-21.667,0 -38.333,14.167 -50.833,41.667c-12.5,27.5 -18.334,66.666 -18.334,116.666l0,95.834c0,125 23.334,187.5 70.834,187.5c45.833,-0 69.166,-51.667 69.166,-155.834Z" style="fill:#b81a52;fill-rule:nonzero;" /></g><g><path d="M6542.38,5830.38l-85,-70c34.167,-78.333 92.5,-118.333 173.333,-118.333c35.834,-0 69.167,10 100,30c31.667,20 46.667,50 46.667,91.666c0,47.5 -24.167,95.834 -72.5,145.834l-146.667,151.666l115.834,0c42.5,0 67.5,-25.833 75.833,-77.5l37.5,0l-20.833,169.167l-313.334,0l0,-18.333c102.5,-126.667 165,-212.5 187.5,-257.5c22.5,-45 33.334,-83.334 33.334,-116.667c-0,-24.167 -5.834,-43.333 -17.5,-56.667c-11.667,-13.333 -26.667,-20 -45,-20c-22.5,0 -40.834,9.167 -54.167,27.5c-13.333,18.334 -20,43.334 -20,73.334c0,15 1.667,30.833 5,45.833Z" style="fill:#b81a52;fill-rule:nonzero;" /></g><g><path d="M6965.42,5652.04l165.833,-0c10.833,-0 19.167,-6.667 23.333,-20.834l37.5,0l-35.833,111.667l-170.833,-0l-17.5,80.833c20,-5 40.833,-7.5 62.5,-7.5c51.666,0 95.833,15.834 130,48.334c35,31.666 52.5,73.333 52.5,124.166c-0,50 -17.5,91.667 -52.5,124.167c-34.167,31.667 -78.334,48.333 -130,48.333c-64.167,0 -110,-27.5 -137.5,-81.666l85.833,-67.5l0,28.333c0,55 19.167,82.5 57.5,82.5c20,-0 38.333,-10 54.167,-29.167c16.666,-20 25,-46.666 25,-79.166c-0,-33.334 -10.834,-61.667 -32.5,-85c-21.667,-23.334 -50,-35 -85,-35c-26.667,-0 -49.167,5 -65,15l-20,-0l52.5,-257.5Z" style="fill:#b81a52;fill-rule:nonzero;" /></g><path d="M3506.79,6882.04l-0,-602.213l204.675,0c60.491,0 106.537,11.392 138.141,34.179c31.6,22.788 47.404,56.017 47.404,99.692c0,72.425 -48.15,123.696 -144.45,153.808c112.575,27.396 168.863,82.6 168.863,165.609c-0,48.012 -16.479,84.837 -49.438,110.47c-32.958,25.638 -80.229,38.455 -141.804,38.455l-223.392,-0Zm118.005,-351.563l29.704,0c35.262,0 63.271,-8.679 84.025,-26.042c20.75,-17.362 31.125,-40.962 31.125,-70.8c-0,-27.67 -8.342,-46.454 -25.025,-56.358c-16.679,-9.9 -48.217,-14.85 -94.604,-14.85l-25.225,0l-0,168.05Zm-0,266.113l26.854,-0c52.625,-0 88.908,-5.63 108.846,-16.888c19.937,-11.254 29.908,-31.804 29.908,-61.642c0,-30.654 -13.362,-56.154 -40.079,-76.5c-26.721,-20.345 -60.425,-30.516 -101.117,-30.516l-24.412,-0l-0,185.546Z" style="fill:url(#_Radial1);fill-rule:nonzero;" /><path d="M4031.66,6882.04l-0,-602.213l376.383,0l-0,82.6l-251.059,0l0.001,168.05l205.891,0l0,80.567l-205.891,-0l-0,185.546l270.183,-0l-0,85.45l-395.508,-0Z" style="fill:url(#_Radial2);fill-rule:nonzero;" /><path d="M4532.17,6882.04l-0,-602.213l125.325,0l-0,516.763l271.404,-0l-0,85.45l-396.729,-0Z" style="fill:url(#_Radial3);fill-rule:nonzero;" /><path d="M5497.75,6867.79c-75.412,19.533 -140.517,29.296 -195.312,29.296c-103.892,-0.001 -183.713,-27.33 -239.459,-81.988c-55.746,-54.662 -83.621,-132.992 -83.621,-234.987c0,-101.184 27.875,-179.038 83.621,-233.563c55.746,-54.525 135.159,-81.787 238.238,-81.787c65.92,-0 131.295,7.733 196.129,23.195l-0,98.063c-75.142,-25.771 -136.854,-38.654 -185.142,-38.654c-63.746,-0 -112.983,20.341 -147.704,61.033c-34.721,40.692 -52.083,98.333 -52.083,172.933c-0,72.159 18.583,128.784 55.745,169.884c37.163,41.096 88.434,61.641 153.809,61.641c14.375,0 31.196,-2.033 50.454,-6.1l-0,-198.162l125.325,-0l-0,259.196Z" style="fill:url(#_Radial4);fill-rule:nonzero;" /><rect x="5638.12" y="6279.83" width="125.325" height="602.212" style="fill:url(#_Radial5);" /><path d="M5909.54,6279.83l125.325,0l-0,369.059c-0,58.321 9.629,100.437 28.887,126.341c19.263,25.909 50.321,38.859 93.184,38.859c40.958,-0 70.595,-12.342 88.904,-37.025c18.312,-24.688 27.466,-64.43 27.466,-119.225l0,-378.009l109.05,0l0,369.871c0,55.613 -5.287,97.996 -15.866,127.158c-10.584,29.163 -29.842,54.459 -57.784,75.888c-38.246,29.567 -89.654,44.35 -154.212,44.35c-69.175,-0 -124.784,-15.733 -166.829,-47.2c-29.03,-21.7 -49.305,-47.404 -60.834,-77.108c-11.529,-29.705 -17.291,-71.138 -17.291,-124.309l-0,-368.65Z" style="fill:url(#_Radial6);fill-rule:nonzero;" /><path d="M6528,6882.04l0,-602.213l166.017,0l144.854,423.584l149.333,-423.584l145.671,0l0,602.213l-115.558,-0l-0,-454.509l-146.892,414.225l-100.912,0l-144.042,-420.329l-0,460.613l-98.471,-0Z" style="fill:url(#_Radial7);fill-rule:nonzero;" /><defs><radialGradient id="_Radial1" cx="0" cy="0" r="1" gradientUnits="userSpaceOnUse" gradientTransform="matrix(3777.67,0,0,981.446,3431.5,6567.08)"><stop offset="0" style="stop-color:#004d84;stop-opacity:1" /><stop offset="0.48" style="stop-color:#055183;stop-opacity:1" /><stop offset="1" style="stop-color:#125e82;stop-opacity:1" /></radialGradient><radialGradient id="_Radial2" cx="0" cy="0" r="1" gradientUnits="userSpaceOnUse" gradientTransform="matrix(3777.67,0,0,981.446,3431.5,6567.08)"><stop offset="0" style="stop-color:#004d84;stop-opacity:1" /><stop offset="0.48" style="stop-color:#055183;stop-opacity:1" /><stop offset="1" style="stop-color:#125e82;stop-opacity:1" /></radialGradient><radialGradient id="_Radial3" cx="0" cy="0" r="1" gradientUnits="userSpaceOnUse" gradientTransform="matrix(3777.67,0,0,981.446,3431.5,6567.08)"><stop offset="0" style="stop-color:#004d84;stop-opacity:1" /><stop offset="0.48" style="stop-color:#055183;stop-opacity:1" /><stop offset="1" style="stop-color:#125e82;stop-opacity:1" /></radialGradient><radialGradient id="_Radial4" cx="0" cy="0" r="1" gradientUnits="userSpaceOnUse" gradientTransform="matrix(3777.67,0,0,981.446,3431.5,6567.08)"><stop offset="0" style="stop-color:#004d84;stop-opacity:1" /><stop offset="0.48" style="stop-color:#055183;stop-opacity:1" /><stop offset="1" style="stop-color:#125e82;stop-opacity:1" /></radialGradient><radialGradient id="_Radial5" cx="0" cy="0" r="1" gradientUnits="userSpaceOnUse" gradientTransform="matrix(3777.67,0,0,981.446,3431.5,6567.08)"><stop offset="0" style="stop-color:#004d84;stop-opacity:1" /><stop offset="0.48" style="stop-color:#055183;stop-opacity:1" /><stop offset="1" style="stop-color:#125e82;stop-opacity:1" /></radialGradient><radialGradient id="_Radial6" cx="0" cy="0" r="1" gradientUnits="userSpaceOnUse" gradientTransform="matrix(3777.67,0,0,981.446,3431.5,6567.08)"><stop offset="0" style="stop-color:#004d84;stop-opacity:1" /><stop offset="0.48" style="stop-color:#055183;stop-opacity:1" /><stop offset="1" style="stop-color:#125e82;stop-opacity:1" /></radialGradient><radialGradient id="_Radial7" cx="0" cy="0" r="1" gradientUnits="userSpaceOnUse" gradientTransform="matrix(3777.67,0,0,981.446,3431.5,6567.08)"><stop offset="0" style="stop-color:#004d84;stop-opacity:1" /><stop offset="0.48" style="stop-color:#055183;stop-opacity:1" /><stop offset="1" style="stop-color:#125e82;stop-opacity:1" /></radialGradient></defs></svg>